<svg id="Layer_1" data-name="Layer 1" xmlns="http://www.w3.org/2000/svg" viewBox="0 0 2560 4324.19"><defs><style>.cls-1{fill:#e6e6e6;}.cls-1,.cls-2{fill-rule:evenodd;}</style></defs><path class="cls-1" d="M2308.27,1180.33c-58.47-27.19-141.21-5.43-199.81,13.38-209.8,67.33-397.77,186.56-547.37,348.34l-38.42,41.53,55.77,9.54c279.13,47.75,527.17,177.81,719.33,386.79,96.61,105.06,183.05,234.11,238.4,365.92l5.89,14,14.72,3.81c97.82,25.32,243.75,2.08,341.78-20.12,92.14-20.87,186.22-49.34,272.57-87.91l25.22-11.27-8.57-26.26c-55.3-169.55-139.84-335.51-241.5-481.91-164.36-236.69-378.55-427.58-637.35-555.54l-.33-.16-.33-.15ZM1420.73,2971.45h0l-8.59,98.38-48.68-85.93c-32.75-57.81-61.69-118-82-181.38-116.33-362.47-65.82-754.55,137.83-1076l1.53-2.43,2-2.1c7.48-8,20.43-16.92,30-22.35l8.52-4.81,9.73,1c139,14.27,274.26,50,400.26,110.78l37.63,18.16-28.59,30.47c-92.75,98.86-172.24,213-237.57,331.58-131.14,238.13-198.49,515-222,784.67Zm1913.52-805.29h0l-33.07,21.73-12.81-37.43c-45.11-131.82-106.75-260.26-179-379.3-142.86-235.47-333-438.29-570-580.71l-103.76-62.37,120.94,5.42c450.85,20.2,860.94,278.67,1072.43,677.75,11.39,21.49,14.08,62.79-1.2,82.53-82,105.92-181.62,198.8-293.59,272.38ZM2252.57,3618.61h0l20,53.29L2217,3659.29c-263.89-59.94-503.4-202.5-681.52-406.3l-2.17-2.49-1.59-2.9c-6.5-11.77-14.6-34.32-17-47.55l-.49-2.69v-2.75c-.2-297.88,57.08-592.92,185.83-862.53,72.09-150.95,168.7-298.78,285.91-418.57l3.75-3.84,4.84-2.34c6.51-3.14,14.75-5.2,21.94-6.28l12.38-1.85,10.14,7.33c163.06,117.86,300.83,286.73,383.45,470.19l2.11,4.7.47,5.13a93.17,93.17,0,0,1-1.38,23.91l-1.25,6.44-3.77,5.36c-83.85,119.34-149.54,258.6-191.4,398.2-79.33,264.58-71.68,539.3,25.27,798.15Zm121-8.48h0l.16.46c8.33,24.74,24.91,44.91,46.27,59.63,12.65,8.73,32.84,19,48,20.3l1,.08,1,0a1280.09,1280.09,0,0,0,420.26-61.12c284.24-91.22,526-277.13,686.61-528.69l61-95.49L3537,3057C3321,3167.69,3081,3226.88,2839.55,3243.13c-169.84,11.44-346.46,3.89-514.35-25L2287,3211.6l2.42,38.73a1116.14,1116.14,0,0,0,84,359.34l.19.46ZM3664.76,2017.86h0l33.23-37.73,18.36,46.82q2.42,6.16,4.45,12.48c69.22,215.68,76.73,426.53,27.83,647.36-9.53,43-47.78,129-82.89,155.4l-.25.19-.25.18c-242.89,175.3-534.78,275.09-832.4,299.79-111.57,9.26-225.32,8.53-336.46-5.48-57.15-7.21-120.32-17.93-174.54-37.68l-20.68-7.53.5-22c4.94-218.48,80.31-416.74,208.7-592.23l10-13.68,16.91,1.19c352,24.78,691.29-65.86,965.9-292C3560.83,2125.46,3615.36,2073.92,3664.76,2017.86Z" transform="translate(-1220 -337.9)"/><path class="cls-2" d="M1721.05,1328.49s43.81-46.18,60.57-52.48c13.36-5.27,35.26-15.32,57.26-22.79.67,2.23,1.38,4.63,2.1,7.25,8.14,29.4,25.16,38,26.65,50.28,8.48,70.58,11.51,32.06,46.23,74,39.23,47.38-29.21,46.28-31.86,81.86-5.59,75.26,105,65.56,133.79,13.33,3.23-5.85,4-70.54.79-18.07-2.78,46.05-97.23,63.18-115.84,36-24-35.06-1.18-43.7,23.17-64,39.45-32.93-37.53-77.22-41.42-90.68-10.41-36-1.36-28.56-24.61-66.48-3.73-6.43-6.41-16.34-8.4-26.86,19-5.62,37.1-8.38,48.58-3.38,35.45,15.46,19.81,8.25,53.64,7.34,11.27-.3-2,21.22,64.65-6.6,117.4-49,49.54,6.44,89.83,25.4,10.81,5.09,35.48,7.68,36.65,22.83a17.39,17.39,0,0,0-2.81,2.71c-12.58,18.21-14.13,29.08-14.45,51.23,10-25.53,13.52-34.38,23.51-41.06,15.94,14.37,57.33,28.86,63.59,35.48,18.08,19.13,8.78,64.22,4.08,86.81l-2.64,9.66c-4.92,11.78-8.74,11.7-8.72,20.79,0,3.59-.36,11.06-.29,19.06l-1.22.74s-.25,25.09,11.24,37.23c4.77,5,17,14.17,29.56,23.11.55,0,1.1.08,1.64.1,5,4.26,13,9.11,30,21.38,13.56,10.75-39.19,28.82-51.41,38.44-15.81,12.46-33.35,14.53-36.9,34.54-1.44,8.12-60.35,16.3-87.95,37.11-35.07,26.43,10.57-3.11,42.66-10.15,113-24.77,31.33-17,75.21-47.4,24.79-17.16,53.77-7.07,76.91-49.41,1.54-2.81-16.38-18.44-25.64-27.84,13-4.43,20.12-8.74,18.74-19.28-1.58-12.11-1.09-21.85,6.15-23.67s77.85,13.57,89.17,16c50.67,11.25,79.86,7.27,129.32,13.21,10.54,1.27,13.56-6.77,22.12-14.19q11.46-9.94,23.07-19.73l62.85-44,7.72-4.08c10.35,2.19,22.45,6.35,33.5,15,39.2,34.53,55.52,81.27,55.33,131.27L2714,1591c-12.07,9.87-20.7,15.94-26.22,20.12-17.65-5.75-32.79-20.27-50.81-31.56-41.33-25.91-90.4-38.43-138.75-40.92,20.22-1,104.94,30.76,126.09,44,15,9.46,35.21,28.65,55.93,37.25.94,4.78,14.16,9.66,36.77,32.15,8,8,11.57,12.44,18,21.48,13.46,22.28,9,100.27,9.67,105.45s10.43,8,14.44,16.29c3,6.09,1.14,12.16,2.8,16.91-39-1.37-89.91-1.53-101-.81l1.62,1.13c41.34,4.94,72.24,4.81,109.4,10.1,7,6.76,18,18.17,28.92,29.72-36.14-4.13-70.92-5.86-91.83-.79-49.47,12-118.53,28.55-167.15,17.24-69.54-16.18-95-17.61-6.23,14.41,46.43,16.75,113,4.42,159.19-9.91s82.83-13.81,119.44-6.58c9.73,10.55,17.64,19.45,19.85,22.57,6.47,9.12,7.26,33.06,21.82,45.81s48.44,47.62,49.34,54.54,5.07,16.34,15.07,25.58,49,69.83,49,69.83c11.89,20.13,74.35,119.22,76.68,133.06,3.56,21.24-9.73,20.57-19,28.62l.29.52a111.93,111.93,0,0,0-27.78,9.12c-17.31,8-41.14,25.85-57.94,36.62,6.08,52.51-136.11,72.14-170.78,78.37-70.25,12.62-150,19.68-217.74,34.78a126.36,126.36,0,0,0-21.93,6.53c-19.14,9.11-38.75,18.09-58.47,27.07.74-1.34,1.47-2.67,2.23-4,11.35-20.17,34.78-53.42,26.9-77.35-23.25-44.26-42.24-41.49-20.1-67.68a147.76,147.76,0,0,1,14.52-2.75c74.48-10.36,126.74-9.48,200.63,4,70,11.43,117.74,4.58,175.13-39-69.67,31.5-106,44.71-182.83,27.72-80.36-19.66-124.28-7.39-194-4.62,2.19-2.26,4.55-4.67,7.1-7.26,17.63-17.89-28.81,5-26.32-22.35,190.18-167,140.94-273.48,140.83-272.29-11.65,120.41-54.42,169.09-142.91,239.8-3.33,1.45-7,2.08-10.55,0-35.87-21.55-31.41-95.4-69-98.41-49.64-1.19-18.32,12.61-59.67-26.08-8.83-8.26-30.65-19.52-42.54-15.43-49.66,17.07-34.87-16-63.12-26.52-36.18-13.47-75.11-63.84-103.59-47.81-30,16.86-36.63,9.69-70.4-.94-41.35,1.87-102.07,11.87-144.75,16.93-40.86,4.85-84.86,10.92-125.76,13.69-32.73.76-89.51,10.52-113.09,9.5s-89.79-14.07-116.64-31.08-40-30.24-46-48.81c-10.78-36.08-21.91-74.52-31.12-113.49.39-.77.8-1.56,1.24-2.37,29.87-54.76,76-70.09,135.83-50.69,37.26,12.08,21,66.87,53,49.67,16-8.59,11.79,1,26.41-7.09,6.51-3.61,22.08-.87,35.45-4.09,26.9-6.48,47.08-15.91,76.52-23.2,6.82-1.69,91.1-25,104.59-28.53l2.19-.41c86.28,9.5,151.59,5.4,236-8.34,79.82-13,166.07,15.65,243.39,32.38-50-27.14-168.5-45.71-224.58-41-52.06,4.42-79.25,9.72-134.72,9.74-6.39,0-66.17,3.21-92.23,1,12.06-4,38.09-17.9,44-20.31,6.4-2.6,41.47-19.2,52-30.83s32.36-28.27,31.27-29.89a152.82,152.82,0,0,0-14.29-15.14c-5.65-5.12-26.12-9.19-28.68-8.56-81.83,20.1-156.38,59.73-224.75-28.39-5.53-7.12-21.83-7.7-21.83-7.7s-.18,5.3-.51,11.79c-4,15.38-15.17-10.38-9.27,25.36,9.2,55.76,18,58.11,47.39,104.81,3.59,6.17,14.32,16.1,21.09,20-30.72,9-65,14.55-97.94,26.68-17.39,6.41-63.57,7.11-78.74,15.32-7.48,4-17.25-25.6-24.28-51.92,9.33-66.84,32.81-109.44,81.58-154.57-8,3-12.54-16.32,8-22.09.39-.11-35.81-83.3-38.62-91.8-7.58-26.56-11.94-39.77-9-59.8s31.56-81.52,40.84-93.58,35.45-42.74,35.45-42.74l-33.48,9.19Zm921.74,106.17c15.77,5.82,31.93,15.48,39.13,22.07,43.8,40,39.61,76.62,41.76,126.83,7.59-5.94,17.68-14,22.68-18.75,8.61-8.16,78.63-91.48,78.63-91.48q9.11-12.46,18.28-24.87c14.34-19.42,24.12-44.54,52.1-35.12,20.92,7.05,51.57-1.62,54.17,4.48,4,9.5,32.43,38.23,40.8,43.92,8.82,6,32.77-11.75,6.84-36.84-50.07-48.44-.63-54.64,45-46.17,28.68,5.32,28.24-7.47,27-21.36l-1.72-.25c-10.31-1.51-49.45-11.57-47.26-11.64a273.54,273.54,0,0,1,28.33,1.36c5.61.62,13.39,1.6,20,2.46-.19-5,.22-9.61,2.59-13.18,1.69-2.55,64.22-6.69-1.77-31.21-45.51-16.91-2.31-1.85,19.53,1.89,32.64,5.59,30.68,3.91,35.08-15.86,6-27-88.44-20-101.08-20.34-39.76-.92-60.62,6.65-100.32,15.73-59.75,13.67-78.52,32.91-128.38,59.09-14.89,7.22-55.54,37.16-71.35,46.26-10.66,6.13-53.34,28.82-80.07,43Zm388.74,821.09c-8.34,1.83-17.59,7.34-39.81,20.6-18.27,10.91-28.46,14.14-36.6,32.34-16.13,36.09-83.54,53.81-118.81,63.49-20.85,5.49-41.33,10.6-62.44,15-92.09,19.38-180.45,15.76-267,46.89-4.56,1.64-20.16,8.09-39.92,16.32-50.92,97.19-51.75,173.35,4.64,256.44,4.26-19.13,9.41-40.18,19.57-50.83,90.47-94.83,353.61-114.69,476.38-109.62,27,1.31,32,9,32,9l-10.19-.29c-142.63-4-353.36,13.43-469.79,103.06-17.85,13.75-27.54,40.08-34.32,67.42q7.89,10.24,16.93,20.68c7.82-12.47,17-25.3,20-29.72,35.82-51.79,167.69-74.39,225.11-81,6.79-.7,81.08-1.13,40.45,2.89-47.08,5.05-82.81,11.81-128,25.85-75.84,23.56-105.65,32.36-141.8,99.39,21,21.6,53.41,47.19,76.61,72.35,38.42-71.7,201.49-116.64,275.82-135.37,75.1-18.27,125.57-39.51,190.5-39-5.62-15.73-16.64-46.64-18-50.8-1.91-5.62-17-17.72-19.15-20.95-2.15-4.79,5.63-14,8.06-17.81,21.76-34.14,2.93-93.22-5.3-125-3-1.23-5.73-2.25-8.06-3-63.67-20.87-94.42-19.82-159.7-24.32-24.89-2-83.9-4.87-101.92-3.68-30.85.95-65.31-.09-96.28-1.44,30.54-3.67,61.24-6.64,91.82-10.29,9.22-1.21,43.53-3.35,68.78-3.13,22.24.56,43.81,2.27,65.93,4.64,47.89,5.13,94.09,4.29,136.25,21.53a4,4,0,0,1,.36-1c13-23.93-7-38.95,6.27-65.93,13-26.57-5.88-43.35.95-46.22,19-8,9.25-39.6.72-58.39ZM3067,2679.06c9.16,26.9,37.68,111.13,41.34,127.84,4.36,19.95,15.42,153.95,17.51,192.38s-2.84,72.49-3.32,77.83-23.32,176-23.32,176l-19.38,107.49c-1.42,31.39-.77,95.54-16.57,130.13-6.93,1.68-12.77,2.68-15.8,2.3-50.17-6.4-100.15-21.12-152.79-28.73-22-3.93-110.86-25.4-116.24-48-4.52-19-4.91-70.34-9.75-97.29l-4.09-17.1c-6.1-16.72-11.43-30.27-15.77-47.77-14.22-53.22-30.36-98.54-43.18-153.81-16.55-71.37-31.46-148-78.59-206.18-2.53-3.12-4.83-5.81-6.9-8.15-.61-8.94-1.64-16-3.28-19.93-1-2-2.14-3.94-3.37-5.92,2.69-2.73,6.31-6.14,10.94-10.72,97.93-96.87,292.64-145.95,442.56-170.4Zm-11.27,824.22c-7.14.31-13.51.1-17.63-1.11-29.77-7.92-62.91-12-93.48-16.42-58.21-8-118.34-10.43-165.57-48.85-1.62,4.13-2.52,8.7-1.24,13.08,6.58,22.62,9.21.76.18,23.05,53.4,18,105.7,28.16,161.17,37.14,10.64,1.72,52.34,1.92,33.08,11-27.59,13-161.49-28.4-192.79-42-7-3.4-17.63,8.44,8.2,19.35,38.64,16.85,80.11,38.42,115.53,61.17,7.16,4.59,58.15,41.28,54,48.85-28.16-11.69-85.81-53.66-117.32-71.37-33.36-18.76-59.93-39.07-95.37-21.42,58.11,64.33,106.83,111.3,138.13,195.8.65,1.76,1.29,3.43,1.9,5,3.35-.69,6.71,4.11,26.74,5,13.48,0,11.35-7.34,11.35-7.34,18.57-8.4,31.65-19.47,44-35.63,18.06-23.66,33.42-23.11,53.7-46.93,24.81-29.15,40.33-39,47.78-77.63,11.68-60.56-20.77-38.7-12.31-50.72Zm-189.47,232.21c-2.6,2.86-5.59,6.11-9.1,9.82l-27.57,29.11c-58,72.88-112.35,146-182,208-7.15,6.37-12.56,11.23-16.6,15-11.07-1.71-23.94-5.17-33.33-12.14-20.13-15-46.45-27.94-55.23-36.76s-36.47-36.86-48.16-50-42.47-56.26-42.53-56.34c58.82-131.27,122.48-253.44,261.08-314.74,19.83-8.77,27.77,4.42,43.12,21.52,48.24,54.58,93.58,114.6,110.28,186.52Zm-245.72,272.69c-5.8-2.14-11.32-4.26-16-6.21-21-8.8-32-16.33-49.18-26.41s-59.14-53.25-70.32-67c-8.34-10.28-30.45-36.06-41.15-48.49l-3.15,7.23c-29.29,62.6-67.12,153.77-93,183.19-31.26,35.53,82.6,28.71-23.27,124.84-18.56,16.85-12.85,47.32-3.71,68.2,10.75,24.55,11.34,31.06,38.44,34.83,8.66,1.22,14.1,7,24.88,13.17s12.3,6.6,26.69,13.52,8.94-1.17,8.32-8.13c-.35-3.93-.36-13.16-.3-20.44a90.88,90.88,0,0,0-10.42-5.5l59.46-85c30.71-43.93,62.18-77.23,98.83-116,10.19-10.79,57.43-46,58.37-52.45,1.28-8.77-6.93-5.25-4.52-9.23Zm-196.64,271.57c5.63,3.93,11.62,9.08,15.78,15.26,10.18,15.08,21,21.87,9.49,32.18s-23.44,13.61-33.49,22-38.44,10.89-38.44,10.89l-24,2.55s-23.81,31-28.19,46.77-21.44,46.78-25.15,54.3-17.29,29.23-17.93,31.08-9.7,31.16-12,40.84-1.34,57.05-1.94,65.92-10.12,34.74-21.75,44.47-11.75,13.27-27.47,14.15-23.83,6-38.46-4.94-46.57-49-51.33-67.47-10.63-90.37-10.89-92.39-1.53-47.59-1.53-47.59-.39-.34-1.1-1c16.2-57.86,4.23-105.52.13-171.08-3.8-60.85-26-159.66,23.36-206.32,25.52-20.12,41.08,6.38,64.69,8.1,16.21,1.18,52.2,10.7,62.09,6.34,32.84-14.49,21.92,35.28,69.47-4.56,70.85,66.68-80.7,60.37-25,174,6.83,13.94,14.77,26.08,30.69,29.26,13.64,1.15,33.47,13.81,33.47,13.81s15.82,17.87,33.63,17.3,26.57,5.91,22.89-6.51c-2.62-8.86-5.62-20.64-7.1-27.32ZM2101,4431.21c17.59-81.41-42.6-272.16,8.67-358.38,28.82-42.75,75-21.37,73.78-24.4-25.22-64-5.67-76,10.13-135a50.59,50.59,0,0,0,1.61-8.14c-2.53.41-6.23.87-12,2.06-28.89,5.95-27.66,12.18-54.45,7.1-26.27-5-49.33,2.72-59.68,0-31.92-8.44-16.71,17.94-66.08.18-5-2.28-17.64,4.06-17.64,4.06-5.5,12.23-10.88,28.84-12.38,42-3,26.59,24,145.65,36.42,175.65,13.2,31.8,17.85,74.2,22.08,108.49,3.42,30.63,29,105.27,43.2,142.11,7.11,18.46,17.62,33.67,26.34,44.26Zm104.51-536.4c2-3.69,4.89-8.8,9.51-15.95q36.54-56.59,73.11-113.17l29.69-55.48,1.25.06a131.93,131.93,0,0,0,4,13.61c8.13,21.8,45.29,63.86,60.78,74.73,12.88,9,44.12,28.26,54.28,34.48-25,65.54-56.09,146.42-115.94,225-30.75,40.36-15.23-.37-49.87,1.87-17.54,1.14-4.48,6.78-37.09,5-29.62-1.62-31.37-.86-44-31.34-25.25-60.84,14.08-88,14.28-138.78Zm124.11-191.48c5.41,18.24,15.77,39.63,19.58,45.28,4.36,6.47,26.85,30.5,37.21,37.95,8.81,6.33,47.47,23.6,58.82,28.62,42.37-102.38,91.44-189.28,183.07-255.68,22.12-16,31.34-11.17,22.89-31.3-19.05-45.37-32.82-74.85-45.57-115.81a80.34,80.34,0,0,1-10.31,2.69c-5.77.76-100.6,64.75-107.77,72.72s-42.66,39.28-42.66,39.28-43.16,37.6-58,63.28c-12.32,21.36-46.21,90.35-57.27,113Zm288.84-295.12c9.58,34.74,21.8,71.46,36.49,99.66,16.14,31,10.64,26.08,39.36,12,11.3-5.53,60.8-23.23,62.16-30.52,1.3-6.93,8.12-26.42,8-27.18-2.06-15.25,2.44-13.19,1.72-22.83-16.76-5.4-38.18-11.69-53.76-19.7-22.95-11.8-47.74-46.31-60.38-74-.89,2-1.93,3.69-3.11,4.39-3.81,2.25-2.75,23.81-4.28,34.56s-22.3,22.27-22.3,22.27l-3.92,1.35Zm36.49-71.79c23.6,43.8,54.93,90.55,109.92,88-4.3-44.36-9-88.82-18.76-132.36-3.15-9.64-6.69-18.26-10.48-27.66-22.84-59-41.49-142.34-53.48-204.95-15.37-80.27-18.25-86.12-57.82-157.9-1.31-2.38-2.56-4.56-3.76-6.57,1.47,39.1-2.39,101.62.12,117.52,3.37,21.25,26.41,170.69,29.72,182.57s4.81,140.1,4.81,140.1-.09.48-.27,1.28ZM1473.23,1825.63c32.37-35.89,61.66-57.92,118.78-47,4.71.9,33.27,12,33.41,12v0c-20.08-42.25-29.61-97-36.12-142.86-8.53-60.1-16.61-58,10.67-112,21.92-43.43,19-67.32,20.57-115.39.27-2.38-4.46-43.1-4.46-43.1s-24.43,10.52-30.81,22.2-4.68,40.48-5.88,58.23-14,18.83-17.71,19.32-9.7-7-12.32-18-11.85-81.71-14-98.14-11.61-19.3-20.18-24.33-15.54,6.72-16.88,18.91,10.36,72.53,12.35,87.81-.58,18-.58,18l-8.76-6.47s-18.18-90.85-18.57-93.88-5.7-20.07-12-25.7-20.14,1.76-23.13,5.81,4.48,44.42,5.69,53.64,15.73,80,15.73,80l-8.77-8.82s-19.59-60.18-28.47-74.26-15.59-2.66-27.25,2.39,1.89,27.89,4.75,36.31,9.54,55,13.8,56.25-16.5,3.91-29.36-.27-24.66-13.78-28.9-23.78-21.63.48-22.63,15.27,21,26,35.4,37.59,36.3,31,42.12,39.64c9.2,14.28,17.61,29,26.31,43.62,12,20.11,9.75,81.62,10.62,106.43,1.37,39.11,7.73,80,16.58,120.67Zm329.82,211.81c-15.56.69-28.72,1.33-44.27,2.93.82,29.84,5.39,52,15.78,80,21.71,58.54-1.85-12.07,1.89-38.21,6.85-47.8,5.82,8.69,8.59,27,11.67,77,2.59-31.09,7.13-43.71,13.51-37.57-2.37,60.3,10.13,69.71,5-14.88-7.48-46.5,10.46-75.12-2.89,28.32-7.68,83.33,12,105.82.39-17.51-4.92-35.28-4.33-57.66,2.08-80.17,4.41-4.23,8.39,20.16,12.31,75.5,6.42,14.62,3.85-14.92-6.72-77.29,3.6-26.75,7.85,10.25.9,7.86,2,73.81,2.75,74.67,10-23.48,4.27-77.51,1.83-102.78-7.68-79.61,10.29-20.37,14.21,8.7,9.22,68.38,7.6,33.42,4.08-8.08-1.13-13.35-8.65-36.49,7.09-36.68,2.62,26.27,5.9,56.35,17.78,80.23-1.38-33.6-6.25-46.06-3.5-83.21-1.41,14.41-1.32,23.46,4.46,37.17,15.27,36.24,15.81,36.85,19.08,78,6.46,81.48,7.1-19.68,5.45-34.74-5.08-46.45-17.53-24.35-16.14-83.92,6.17,14.8,13.08,29.77,17.46,45.19,6.82,24,4.47,119.9,9,45.56,3.49-57.93-9.22-49.59-14.31-92.24,20.22,37.08,19.06,46.36,22,87,3.27,44.84,3-23.29,2.84-28.87-.56-21.13-17.47-58.16-16-62.17,6-16.93,23.7,45.77,24,47,15.73,60.64-4.31-7.91,1.51-38.57,16,6.82,15.06,17.21,12.09-10.46,16.25,14.57,21.52,32.67,26.56,53.31-3.41-51.93-13.94-42.28-22.15-79.11C1908,2026.36,1856,2034.07,1803.05,2037.44Z" transform="translate(-1220 -337.9)"/><circle cx="2433.35" cy="606" r="268.08" transform="translate(-935.8 1560.23) rotate(-45)"/></svg>