<svg xmlns="http://www.w3.org/2000/svg" viewBox="0 0 24 24" version="1.1">
	<path d="M6.28176 3.0372C5.54988 3.172584 5.004408 3.61032 4.698264 4.308C4.614168 4.499664 4.5423599999999995 4.787472 4.5126479999999995 5.0520000000000005C4.480272 5.340384 4.480056 18.685608000000002 4.512432 19.018656C4.575216 19.664256 4.85952 20.178648000000003 5.359368 20.550912C5.53956 20.685096 5.892864 20.849424 6.156 20.921448L6.396 20.987136000000003 7.524 20.987568C8.62116 20.988 8.657904 20.986488 8.868 20.933088C9.770544 20.703623999999998 10.373112 19.964952 10.487352000000001 18.948C10.519728 18.659616 10.519944 5.314392 10.487568000000001 4.981344C10.424784 4.335744 10.14048 3.8213520000000005 9.640632 3.4490879999999997C9.459576 3.314256 9.106368 3.150288 8.844 3.079272L8.604000000000001 3.014328 7.5360000000000005 3.008544C6.690936 3.00396 6.42912 3.0099600000000004 6.28176 3.0372M15.28176 3.0372C14.54988 3.172584 14.004408000000002 3.61032 13.698264 4.308C13.614168 4.499664 13.54236 4.787472 13.512648000000002 5.0520000000000005C13.480272 5.340384 13.480056 18.685608000000002 13.512432 19.018656C13.575216000000001 19.664256 13.85952 20.178648000000003 14.359368 20.550912C14.539560000000002 20.685096 14.892864 20.849424 15.156 20.921448L15.396 20.987136000000003 16.524 20.987568C17.62116 20.988 17.657904 20.986488 17.868000000000002 20.933088C18.770544 20.703623999999998 19.373112 19.964952 19.487351999999998 18.948C19.519728 18.659616 19.519944000000002 5.314392 19.487568 4.981344C19.424784 4.335744 19.14048 3.8213520000000005 18.640632 3.4490879999999997C18.459576000000002 3.314256 18.106368 3.150288 17.844 3.079272L17.604 3.014328 16.536 3.008544C15.690936 3.00396 15.429120000000001 3.0099600000000004 15.28176 3.0372M6.422256 4.5595680000000005C6.205896 4.645272 6.08316 4.82028 6.024864 5.126304C6.005184000000001 5.22972 5.999784000000001 7.1193360000000006 6.004944 12.120000000000001C6.011736 18.710784 6.01368 18.976344 6.056232 19.085928C6.109224 19.22244 6.257376 19.36044 6.422832 19.427448C6.531359999999999 19.471416 6.609648 19.475496 7.4839199999999995 19.482744C8.31408 19.489632 8.442336000000001 19.485768 8.548104 19.450632C8.77872 19.374048 8.914848000000001 19.190112 8.975136000000001 18.873696C8.994816 18.77028 9.000216 16.880664 8.995056 11.88C8.988264000000001 5.289216 8.986320000000001 5.023656 8.943768 4.914072C8.890776 4.777584 8.742672 4.639584 8.577168 4.5725039999999995C8.468184 4.528344000000001 8.392992000000001 4.5246 7.5 4.518984C6.5976479999999995 4.513296 6.53292 4.51572 6.422256 4.5595680000000005M15.422256 4.5595680000000005C15.205896 4.645272 15.083160000000001 4.82028 15.024863999999999 5.126304C15.005184 5.22972 14.999784 7.1193360000000006 15.004944 12.120000000000001C15.011736 18.710784 15.01368 18.976344 15.056232 19.085928C15.109224000000001 19.22244 15.257376 19.36044 15.422832000000001 19.427448C15.53136 19.471416 15.609648000000002 19.475496 16.48392 19.482744C17.31408 19.489632 17.442336 19.485768 17.548104000000002 19.450632C17.77872 19.374048 17.914848 19.190112 17.975136000000003 18.873696C17.994816 18.77028 18.000216 16.880664 17.995056 11.88C17.988264 5.289216 17.98632 5.023656 17.943768000000002 4.914072C17.890776 4.777584 17.742672000000002 4.639584 17.577168 4.5725039999999995C17.468184 4.528344000000001 17.392992 4.5246 16.5 4.518984C15.597648000000001 4.513296 15.53292 4.51572 15.422256 4.5595680000000005" stroke="none" fill="currentColor" fill-rule="evenodd" stroke-width="0.024"></path>
</svg>