<svg xmlns="http://www.w3.org/2000/svg" viewBox="0 0 24 24" version="1.1">
	<path d="M3.54 1.023024C3.5136000000000003 1.028208 3.4326000000000003 1.044096 3.36 1.0583280000000002C2.963616 1.135968 2.55408 1.360584 2.244552 1.6701119999999998C1.893744 2.02092 1.68204 2.4518880000000003 1.6089360000000001 2.964C1.5758880000000002 3.1954320000000003 1.5758880000000002 20.804568 1.6089360000000001 21.036C1.662048 21.408048 1.7839679999999998 21.725664000000002 1.990344 22.029576C2.105136 22.198608 2.3561520000000002 22.455528 2.5098000000000003 22.561248000000003C2.926056 22.847640000000002 3.2495760000000002 22.959264 3.734664 22.983936C4.16484 23.005776 4.469352000000001 22.940544 4.872 22.74024C5.296608 22.529040000000002 21.235319999999998 13.981248 21.386928 13.883472C21.701784 13.68036 22.012344000000002 13.333728 22.182096 12.996C22.357104000000003 12.647784 22.441224000000002 12.162144 22.395768 11.762424000000001C22.366775999999998 11.507496 22.27956 11.197944000000001 22.182096 11.004C22.012344000000002 10.666272 21.701784 10.31964 21.386928 10.116528C21.24684 10.026168 5.365296 1.50732 4.888968 1.267056C4.52088 1.081368 4.2102960000000005 1.0063680000000002 3.8280000000000003 1.010784C3.696 1.01232 3.5664 1.017816 3.54 1.023024M3.7152239999999996 2.5230960000000002C3.4662 2.5596959999999997 3.2352000000000003 2.749776 3.1441920000000003 2.992992C3.096264 3.121128 3.096 3.1687680000000005 3.096 12C3.096 20.831232 3.096264 20.878872 3.1441920000000003 21.007008000000003C3.2117999999999998 21.187704 3.3340080000000003 21.320184 3.515448 21.409512C3.657144 21.479280000000003 3.684168 21.484392 3.868848 21.47652L4.068816 21.468 12.330143999999999 17.042256000000002C18.18036 13.908192000000001 20.616768 12.591336 20.678136000000002 12.530256000000001C20.725800000000003 12.482807999999999 20.793264 12.39 20.828064 12.324C20.88204 12.221616 20.891328 12.174072 20.891328 12C20.891328 11.825928000000001 20.88204 11.778384 20.828064 11.676C20.793264 11.61 20.725728 11.51712 20.677992 11.4696C20.616432 11.408328 18.191112 10.097472 12.337776 6.961824000000001C3.454656 2.203128 3.9960959999999996 2.48184 3.7152239999999996 2.5230960000000002" stroke="none" fill="currentColor" fill-rule="evenodd" stroke-width="0.024"></path>
</svg>