<svg xmlns="http://www.w3.org/2000/svg" viewBox="0 0 24 24" version="1.1">
	<path d="M1.846488 0.037176C1.3935840000000002 0.119208 0.99696 0.32529600000000003 0.6709919999999999 0.648C0.435072 0.8815440000000001 0.2856 1.099968 0.161832 1.3920000000000001C-0.014039999999999999 1.8070080000000002 0 1.016472 0 10.509408C0 19.888128000000002 -0.011208000000000001 19.178544 0.143328 19.577832C0.285048 19.944024 0.601608 20.350344 0.924 20.57988C1.120104 20.719488000000002 1.372536 20.842608000000002 1.625088 20.921832000000002L1.836 20.988 5.148 20.988L8.46 20.988 8.588616 20.916768C8.8818 20.75436 9.030719999999999 20.441664 8.971872 20.112000000000002C8.931096 19.883616 8.787 19.693848 8.568 19.580088L8.46 19.524 5.28 19.511496C3.0493200000000003 19.502736000000002 2.078088 19.491096000000002 2.026608 19.472496000000003C1.810752 19.394544 1.655616 19.255824 1.562664 19.057608000000002L1.5 18.924 1.5 10.512C1.5 2.296104 1.501056 2.09724 1.5457440000000002 1.981416C1.603776 1.8309360000000001 1.7516159999999998 1.6698959999999998 1.9070399999999998 1.5878640000000002L2.028 1.524 7.548 1.524L13.068 1.524 13.188 1.5813359999999999C13.363631999999999 1.6652639999999999 16.334736 4.636368 16.418664 4.812L16.476 4.932 16.488 6.696L16.5 8.46 16.564680000000003 8.582592C16.649952000000003 8.744208 16.841112 8.913888 16.995816 8.965272C17.158176 9.0192 17.421024 9.003576 17.561328 8.931648C17.791800000000002 8.81352 17.930184 8.631816 17.974152 8.389584C18.009192000000002 8.196504000000001 18.009216000000002 5.192832 17.974176 4.878528C17.929512 4.47804 17.785968 4.111224 17.542368 3.7752000000000003C17.413584 3.597528 14.40816 0.590496 14.231520000000002 0.46257600000000004C13.928111999999999 0.242856 13.651992 0.12079200000000001 13.292231999999998 0.047328C13.065336 0.000984 12.944424 0.000048 7.544232000000001 0.00216C2.98548 0.003936 1.996488 0.010008 1.846488 0.037176M3.492 4.54248C3.29928 4.6217760000000006 3.1450799999999997 4.755504 3.062736 4.91472C2.979072 5.076504 2.973672 5.25408 2.980896 7.6080000000000005L2.988 9.924 3.050712 10.056000000000001C3.130704 10.224384 3.264552 10.357944 3.432 10.436496C3.60516 10.517736 3.8666160000000005 10.521648 4.037640000000001 10.445568000000002C4.202208000000001 10.372368 4.374264 10.190159999999999 4.436904 10.022784L4.488672 9.884400000000001 4.482336 7.4682L4.476 5.0520000000000005 4.420488000000001 4.93932C4.353216 4.802712 4.200936 4.645968 4.069224 4.5777600000000005C3.951312 4.51668 3.606 4.495584 3.492 4.54248M7.032 4.567968C6.644064 4.683072 6.3419039999999995 4.933896000000001 6.170856000000001 5.282808C5.980824 5.670504 5.988 5.583024 5.988 7.5120000000000005C5.988 9.062064000000001 5.992032 9.243648 6.029616000000001 9.389832C6.165456 9.918023999999999 6.556152 10.306128000000001 7.104 10.45704C7.242168 10.49508 7.372488000000001 10.5 8.244 10.5C9.005735999999999 10.5 9.257808 10.49244 9.36 10.466568C9.914832 10.326096000000001 10.294824 9.939648 10.441320000000001 9.366888C10.485408 9.194472000000001 10.488 9.089903999999999 10.488 7.488C10.488 5.877264 10.4856 5.78232 10.4406 5.606304000000001C10.370688000000001 5.333016 10.265088 5.150808 10.05672 4.944C9.855264 4.744032000000001 9.654024 4.629696 9.373632 4.555824C9.224904 4.516656 9.101424 4.512144 8.209632 4.513296C7.250280000000001 4.51452 7.205088 4.516632 7.032 4.567968M12.492 4.54248C12.299280000000001 4.6217760000000006 12.14508 4.755504 12.062736 4.91472C11.979072 5.076504 11.973672 5.25408 11.980896000000001 7.6080000000000005L11.988 9.924 12.050712 10.056000000000001C12.130704000000001 10.224384 12.264552 10.357944 12.432 10.436496C12.605160000000001 10.517736 12.866616 10.521648 13.037640000000001 10.445568000000002C13.202208 10.372368 13.374264 10.190159999999999 13.436904 10.022784L13.488672000000001 9.884400000000001 13.482336 7.4682L13.476 5.0520000000000005 13.420488 4.93932C13.353216 4.802712 13.200936 4.645968 13.069224000000002 4.5777600000000005C12.951312000000001 4.51668 12.606 4.495584 12.492 4.54248M7.488 7.5L7.488 9 8.232 9L8.976 9 8.976 7.5L8.976 6 8.232 6L7.488 6 7.488 7.5M20.832 9.768191999999999C20.496024 9.800856000000001 20.12232 9.90636 19.836000000000002 10.0494C19.422792 10.255824 19.52076 10.162344 15.344111999999999 14.335032C12.158352 17.517768 11.36832 18.319176 11.319528 18.417576C11.273256 18.510912 11.167272 18.998928 10.873392 20.472C10.6614 21.5346 10.487976000000002 22.454904 10.487976000000002 22.517088C10.488024 22.77396 10.666272 23.055576000000002 10.905528 23.176824C11.136624000000001 23.29392 11.112888 23.297016 13.236 22.87284C14.593032000000001 22.601736000000002 15.219864 22.466616000000002 15.312000000000001 22.425384C15.42876 22.373136000000002 15.900144 21.909768 19.393584 18.41316C22.425384 15.378623999999999 23.371752 14.417736000000001 23.466192000000003 14.27808C23.769408000000002 13.829736 23.933904 13.374072000000002 23.972904 12.874344C24.041520000000002 11.995032 23.740584000000002 11.183496 23.121432000000002 10.578288C22.640328 10.108008 22.061112 9.837768 21.387456 9.769272C21.119208 9.742008 21.102048 9.74196 20.832 9.768191999999999M20.764584000000003 11.304599999999999C20.66808 11.329872 20.533079999999998 11.379888 20.464584000000002 11.415768C20.367408 11.4666 19.496784 12.323136000000002 16.509 15.307224000000001L12.678023999999999 19.133496 12.4386 20.330736C12.288936 21.079152 12.209064 21.528408000000002 12.225576 21.52908C12.240120000000001 21.529680000000003 12.783912 21.424512 13.434023999999999 21.295392L14.616024 21.0606 18.439680000000003 17.232312L22.263336000000002 13.404 22.352976 13.208136000000001C22.596384 12.676344000000002 22.490856 12.079824 22.080864 11.669832C21.721512 11.31048 21.245904 11.178504 20.764584000000003 11.304599999999999M4.1586479999999995 12.03504C3.633624 12.132456000000001 3.1962 12.552264 3.0323040000000003 13.116C2.994792 13.245023999999999 2.9895359999999997 13.424832000000002 2.981736 14.844000000000001C2.972568 16.511400000000002 2.9833920000000003 16.767744 3.074472 17.036592C3.189168 17.375208 3.452472 17.668968 3.790368 17.835312000000002C4.110048 17.99268 4.174584 18 5.244528 18C6.1257600000000005 18 6.224208 17.995944 6.393696 17.9526C6.8785680000000005 17.828592 7.2347280000000005 17.486784 7.419672 16.968L7.475304 16.812 7.4830559999999995 15.084C7.48848 13.877856000000001 7.482696 13.312512 7.463928 13.212C7.4239440000000005 12.998088 7.353576 12.82488 7.2330000000000005 12.643488000000001C7.058736 12.38136 6.816479999999999 12.20292 6.46776 12.079848L6.276 12.012168 5.304 12.007512C4.576776000000001 12.004056 4.288344 12.010968 4.1586479999999995 12.03504M9.462768 12.193176C9.301344 12.257112000000001 9.133728 12.421104000000001 9.052344 12.594719999999999L8.988 12.732000000000001 8.988 15.144L8.988 17.556 9.052344 17.69328C9.326064 18.277296 10.107912 18.29496 10.412064 17.724L10.476 17.604 10.476 15.144L10.476 12.684000000000001 10.419456 12.576C10.341696 12.427464 10.210752 12.295584000000002 10.068 12.222C9.901032 12.135936 9.638856 12.123456000000001 9.462768 12.193176M4.493808 15.006L4.5 16.5 5.238 16.506336L5.976 16.512696000000002 5.976 15.012336000000001L5.976 13.512 5.231808 13.512L4.487640000000001 13.512 4.493808 15.006" stroke="none" fill="currentColor" fill-rule="evenodd" stroke-width="0.024"></path>
</svg>