<svg xmlns="http://www.w3.org/2000/svg" viewBox="0 0 24 24" version="1.1" id="Redo--Streamline-Streamline-3.0.svg">
	<path d="M11.256 0.014688C7.156632 0.29899200000000004 3.5933759999999997 2.524464 1.558752 6.071184000000001C0.7752 7.437072 0.28406400000000004 8.934504 0.070728 10.608C0.006048 11.115336000000001 -0.019632 12.293111999999999 0.022032000000000003 12.84C0.230016 15.568920000000002 1.2627840000000001 18.000984000000003 3.0744960000000003 20.028288C4.849392 22.014432000000003 7.336992 23.383632 9.984 23.831400000000002C10.617528 23.938560000000003 11.479968 24.011424 11.932872 23.99604C12.249048 23.985312 12.360552 23.942591999999998 12.539544 23.7636C12.689568 23.613576000000002 12.750768 23.443944000000002 12.739944000000001 23.208000000000002C12.730751999999999 23.007312000000002 12.673752 22.86888 12.543912 22.73196C12.358896 22.536863999999998 12.208295999999999 22.498488000000002 11.544 22.4772C9.62808 22.415736000000003 7.685304 21.768672000000002 6.051312 20.647752C4.859256 19.830023999999998 3.819312 18.737064 3.052368 17.496C2.8192559999999998 17.118792 2.379 16.237776 2.224824 15.84C2.005872 15.275088 1.823472 14.654568 1.7058959999999999 14.074584000000002C1.46496 12.886056 1.438464 11.537016 1.632384 10.332C2.122176 7.288608 3.928368 4.611384 6.570143999999999 3.0130320000000004C8.690904 1.7298959999999999 11.276232 1.2348720000000002 13.711872 1.64556C14.287439999999998 1.7425920000000001 14.757792 1.8581760000000003 15.278448 2.0304480000000003C17.666520000000002 2.820672 19.68156 4.428264 20.984784 6.582960000000001C21.126408 6.817104 21.456 7.440552000000001 21.456 7.474296C21.456 7.481832 20.172792 7.488 18.604416 7.488C16.666968 7.488 15.707160000000002 7.496304 15.610415999999999 7.51392C15.435744 7.545696 15.264384 7.65096 15.155784 7.793159999999999C14.851416 8.1918 15.018888 8.772936 15.488856 8.94876L15.625800000000002 9 19.5 9L23.3742 9 23.511143999999998 8.94876C23.677728000000002 8.886432 23.838456 8.743295999999999 23.924136 8.580960000000001L23.988 8.46 23.988 4.5L23.988 0.54 23.928384 0.423288C23.844912 0.259824 23.64348 0.08203200000000001 23.490288 0.036528C23.111040000000003 -0.07610399999999999 22.750488 0.078168 22.579008 0.42648L22.5 0.586944 22.488 3.364872L22.476 6.1427760000000005 22.332 5.898216C20.70504 3.135288 17.978784 1.107696 14.868 0.34704C13.895904 0.109344 13.199040000000002 0.023544 12.156 0.013176000000000002C11.7336 0.008976 11.3286 0.009648 11.256 0.014688" stroke="none" fill="currentColor" fill-rule="evenodd"></path>
</svg>