<?xml version="1.0" encoding="utf-8"?>
<!-- Generator: Adobe Illustrator 26.0.3, SVG Export Plug-In . SVG Version: 6.00 Build 0)  -->
<svg version="1.1" id="Redo--Streamline-Streamline-3.0.svg"
	 xmlns="http://www.w3.org/2000/svg" xmlns:xlink="http://www.w3.org/1999/xlink" x="0px" y="0px" viewBox="0 0 24 24"
	 style="enable-background:new 0 0 24 24;" xml:space="preserve">
<style type="text/css">
	.st0{fill-rule:evenodd;clip-rule:evenodd;}
	.st1{fill:none;stroke:#000000;stroke-width:1.5;stroke-miterlimit:10;}
</style>
<path class="st0" d="M11.3,0C7.2,0.3,3.6,2.5,1.6,6.1c-0.8,1.4-1.3,2.9-1.5,4.5C0,11.1,0,12.3,0,12.8C0.2,15.6,1.3,18,3.1,20
	c1.8,2,4.3,3.4,6.9,3.8c0.6,0.1,1.5,0.2,1.9,0.2c0.3,0,0.4-0.1,0.6-0.2c0.2-0.2,0.2-0.3,0.2-0.6c0-0.2-0.1-0.3-0.2-0.5
	c-0.2-0.2-0.3-0.2-1-0.3c-1.9-0.1-3.9-0.7-5.5-1.8c-1.2-0.8-2.2-1.9-3-3.2c-0.2-0.4-0.7-1.3-0.8-1.7c-0.2-0.6-0.4-1.2-0.5-1.8
	c-0.2-1.2-0.3-2.5-0.1-3.7c0.5-3,2.3-5.7,4.9-7.3c2.1-1.3,4.7-1.8,7.1-1.4c0.6,0.1,1,0.2,1.6,0.4c2.4,0.8,4.4,2.4,5.7,4.6
	c0.1,0.2,0.5,0.9,0.5,0.9c0,0-1.3,0-2.9,0c-1.9,0-2.9,0-3,0c-0.2,0-0.3,0.1-0.5,0.3c-0.3,0.4-0.1,1,0.3,1.2L15.6,9h3.9h3.9l0.1-0.1
	c0.2-0.1,0.3-0.2,0.4-0.4L24,8.5v-4v-4l-0.1-0.1c-0.1-0.2-0.3-0.3-0.4-0.4c-0.4-0.1-0.7,0-0.9,0.4l-0.1,0.2l0,2.8l0,2.8l-0.1-0.2
	c-1.6-2.8-4.4-4.8-7.5-5.6c-1-0.2-1.7-0.3-2.7-0.3C11.7,0,11.3,0,11.3,0"/>
<line class="st1" x1="9" y1="15.8" x2="14.9" y2="9.9"/>
<line class="st1" x1="8.9" y1="9.9" x2="14.8" y2="15.7"/>
</svg>
