<svg xmlns="http://www.w3.org/2000/svg" viewBox="0 0 24 24" version="1.1" id="Task-List-Edit-1--Streamline-Streamline-3.0.svg">
	<path d="M9.156 0.037368C7.9620239999999995 0.198624 6.883488000000001 0.833256 6.140016 1.812C5.921016 2.100312 5.679576 2.54256 5.530656 2.928144C5.457384 3.117888 5.341776 3.533592 5.323799999999999 3.672L5.316 3.732 3.612 3.745536C2.10792 3.7574880000000004 1.8896879999999998 3.7639200000000006 1.752 3.800232C0.896112 4.025904000000001 0.285048 4.623144 0.066144 5.448L0.012 5.652 0.012 13.872C0.012 21.875904 0.013200000000000002 22.096728 0.057719999999999994 22.272000000000002C0.16296 22.686456 0.364536 23.043768 0.65952 23.338728C0.9414 23.620632 1.229064 23.789832 1.6526640000000001 23.922888L1.86 23.988 5.16 23.988L8.46 23.988 8.580960000000001 23.924136C9.148416000000001 23.624616 9.130056 22.836552 8.549280000000001 22.564344000000002L8.412 22.5 5.22 22.488L2.028 22.476 1.900344 22.405296C1.7464560000000002 22.320048 1.64412 22.208280000000002 1.56828 22.042632L1.511712 21.91908 1.517856 13.845528000000002L1.524 5.772 1.578984 5.669016C1.6515840000000002 5.53308 1.810032 5.380872 1.944 5.318376C2.050392 5.268744 2.0826480000000003 5.267832 4.116 5.256L6.18 5.244 6.302376 5.188608C6.3696720000000004 5.158128 6.468672000000001 5.087928000000001 6.52236 5.032608000000001C6.679896 4.870248 6.725496 4.756608 6.749544 4.466544C6.8102160000000005 3.734208 6.938064000000001 3.331248 7.268136 2.832C7.6780800000000005 2.211912 8.326751999999999 1.763328 9.073344 1.58364C9.38604 1.508376 9.884784 1.49196 10.22448 1.545768C11.443944 1.7388959999999998 12.432408000000002 2.685288 12.6834 3.9C12.705216 4.0056 12.732240000000001 4.229760000000001 12.743447999999999 4.39812C12.75948 4.638912 12.775512 4.728384 12.818664 4.817472C12.88932 4.963464 13.03776 5.111016 13.188623999999999 5.185248L13.308 5.244 15.372 5.256L17.436 5.268 17.561448 5.324712C17.70816 5.3910480000000005 17.86284 5.549184 17.936136 5.707776000000001C17.986800000000002 5.817384 17.988288 5.850816 18 7.140000000000001L18.012 8.46 18.075936 8.58C18.318264 9.03492 18.904128 9.140640000000001 19.26096 8.793816C19.321656 8.734848 19.400256000000002 8.624808 19.435655999999998 8.549280000000001L19.5 8.412 19.5 7.0920000000000005C19.5 5.684928 19.494552000000002 5.603256 19.378752 5.271816C19.163016 4.654272 18.699696 4.16184 18.107088 3.9202559999999997C17.70276 3.7554 17.758944 3.759696 15.885864 3.7503599999999997L14.191728000000001 3.741912 14.150160000000001 3.5449439999999997C13.979016 2.733912 13.53324 1.9238160000000002 12.920856 1.3109760000000001C11.940648 0.33 10.527887999999999 -0.14793599999999998 9.156 0.037368M9.576 3.016584C9.324288000000001 3.0587280000000003 9.109512 3.179136 8.918904 3.3850320000000003C8.260200000000001 4.096512 8.769744000000001 5.257224 9.740136 5.255712C10.069583999999999 5.2552080000000005 10.318200000000001 5.15424 10.538784 4.931376C10.790304 4.677264 10.885368000000001 4.42656 10.866552 4.066992C10.8564 3.872904 10.843272 3.8188079999999998 10.767432 3.659112C10.666824 3.447288 10.476264 3.2440320000000002 10.27776 3.136896C10.084200000000001 3.0324240000000002 9.786408 2.9813520000000002 9.576 3.016584M5.0040000000000004 9.799752C4.867032 9.853704 4.78404 9.909288 4.697544 10.005023999999999C4.583856 10.13088 4.545864 10.207752 4.515048 10.37448C4.452864 10.710912 4.608912 11.020056 4.926672 11.189856L5.0280000000000005 11.244 9.707088 11.25024C14.980656 11.257272 14.513112 11.274504 14.742672 11.064696C14.930328 10.893168000000001 14.988 10.763280000000002 14.988 10.512C14.988 10.347288 14.977319999999999 10.286304 14.932488000000001 10.19532C14.86584 10.05996 14.714376000000001 9.903336000000001 14.581224 9.832056L14.484 9.78 9.78 9.775704000000001C6.21036 9.77244 5.058648 9.778248000000001 5.0040000000000004 9.799752M20.976 10.503648C20.377368 10.548936 19.854216 10.739400000000002 19.406928 11.074848C19.311264 11.146608 17.496384 12.944904 15.284640000000001 15.159528000000002C11.579592 18.869352 11.330928 19.123488000000002 11.295864 19.236C11.275272 19.302 11.084376 20.229504 10.871640000000001 21.29712C10.576608 22.777728 10.488432 23.261712000000003 10.499976 23.33712C10.538064 23.585904 10.712088 23.822832000000002 10.942919999999999 23.940168C11.13648 24.038568 11.179464 24.032544 13.26 23.6166C14.329199999999998 23.402856 15.2526 23.206872 15.312000000000001 23.181096C15.398352 23.143632 16.212864 22.3416 19.374312 19.181112C22.067472 16.488768 23.370576 15.169775999999999 23.460216 15.045432000000002C24.439992 13.686264 24.040608000000002 11.778096000000001 22.593216 10.902984C22.138704 10.62816 21.48 10.465512 20.976 10.503648M20.832 12.037608C20.611128 12.085416 20.412959999999998 12.190392 20.206488 12.368904C20.108328 12.453792 18.378336 14.174015999999998 16.362096 16.191624L12.696192000000002 19.86 12.456096 21.059328C12.324048 21.718944 12.216000000000001 22.2654 12.216000000000001 22.273632C12.216000000000001 22.281888000000002 12.761448 22.179696 13.428096 22.046544L14.640216 21.804432000000002 18.416808 18.024216C20.493912 15.945096000000001 22.22772 14.192808 22.269672 14.13024C22.406304000000002 13.926552000000001 22.469352 13.721400000000001 22.481856 13.44C22.501272 13.003248000000001 22.39008 12.717504 22.08024 12.407904C21.736848000000002 12.064776 21.302064 11.9358 20.832 12.037608M4.984608000000001 13.559184C4.645176 13.692216 4.453536 14.028863999999999 4.512192000000001 14.389128000000001C4.547976 14.609088 4.71264 14.832768000000002 4.916256 14.938056C5.076744000000001 15.021072000000002 5.275440000000001 15.025704000000001 8.364 15.018816L11.412 15.012 11.54772 14.948376000000001C11.70792 14.873256000000001 11.855352 14.729304 11.932512 14.572632C11.977512 14.481288 11.98788 14.421456000000001 11.987424 14.256C11.986944000000001 14.082504 11.977368 14.034047999999999 11.923488 13.932C11.84724 13.787544 11.714400000000001 13.656024 11.568 13.58004L11.46 13.524000000000001 8.28 13.518984000000001C5.215488000000001 13.51416 5.0958 13.5156 4.984608000000001 13.559184M5.038776 17.288376000000003C4.724544 17.374056 4.504608 17.674272000000002 4.5058560000000005 18.015816C4.506936 18.315336000000002 4.66596 18.561216 4.944 18.693288L5.0760000000000005 18.756 6.66 18.763368C8.382792 18.771408 8.451648 18.767232 8.645928000000001 18.643608C9.143735999999999 18.32676 9.103056 17.595576 8.573136 17.335344000000003L8.436 17.268 6.792 17.263296C5.545464 17.259719999999998 5.1216 17.265792 5.038776 17.288376000000003" stroke="none" fill="currentColor" fill-rule="evenodd"></path>
</svg>