<svg xmlns="http://www.w3.org/2000/svg" viewBox="0 0 24 24" version="1.1" id="Tv-Flat-Screen-Disable--Streamline-Streamline-3.0.svg">
	<path d="M1.536 2.136408C1.307088 2.158896 1.181688 2.193216 0.972 2.2908C0.5332560000000001 2.494968 0.23306400000000002 2.853936 0.065136 3.375192L0.012024 3.54 0.005736 10.296C-0.001368 17.899344000000003 -0.016440000000000003 17.271696 0.183072 17.684592C0.376944 18.085824000000002 0.728616 18.380280000000003 1.212 18.546120000000002L1.4040000000000001 18.612000000000002 5.574 18.618384L9.744 18.624792 9.744 19.752384L9.744 20.88 8.91 20.88024C8.084328 20.880456 8.074776 20.881032 7.95444 20.937072C7.711704000000001 21.050112 7.560936 21.238296 7.515288 21.48516C7.486848 21.639048 7.510656000000001 21.841344000000003 7.570896 21.957864C7.65792 22.126128 7.834848 22.2786 8.014824 22.340424C8.134416000000002 22.381488 15.865584000000002 22.381488 15.985176 22.340424C16.161984 22.279680000000003 16.34208 22.126176 16.425312 21.965184C16.486656 21.846552000000003 16.512768 21.63696 16.484952 21.486456C16.439064000000002 21.238272000000002 16.288752 21.050304 16.045560000000002 20.937072C15.925224000000002 20.881032 15.915672 20.880456 15.09 20.88024L14.256 20.88 14.256 19.752L14.256 18.624 18.358439999999998 18.624C21.943896 18.624 22.482984000000002 18.619392 22.63644 18.587376000000003C23.001648000000003 18.511152 23.237280000000002 18.383760000000002 23.496792 18.122208C23.639256000000003 17.978640000000002 23.701512 17.891664 23.790456 17.712C23.852544 17.5866 23.920560000000002 17.4084 23.941584000000002 17.316C23.962632 17.2236 23.989776 17.129256 24.001920000000002 17.106336C24.030552 17.052287999999997 24.031728 3.624 24.003096 3.624C23.9916 3.624 23.974896 3.569088 23.965992 3.50196C23.94444 3.3394800000000004 23.870304 3.144 23.754192 2.9434560000000003C23.501952000000003 2.507832 22.99716 2.200752 22.428 2.136696C22.175736 2.108304 1.8248880000000003 2.108016 1.536 2.136408M1.66248 3.640824C1.6330320000000003 3.6465359999999998 1.587144 3.6789359999999998 1.5604799999999999 3.712848C1.5120959999999999 3.7743360000000004 1.512 3.7890719999999996 1.512 10.38432L1.512 16.994184 1.57092 17.053079999999998L1.6298160000000002 17.112000000000002 12 17.112000000000002L22.370184000000002 17.112000000000002 22.42908 17.053079999999998L22.488 16.994184 22.488 10.382424L22.488 3.770688 22.430088 3.7033440000000004L22.372152 3.636 12.044088 3.6332159999999996C6.363624000000001 3.63168 1.6919039999999999 3.635112 1.66248 3.640824M0.011832 10.38C0.011832 14.0892 0.014616 15.603024 0.018000000000000002 13.744056C0.021384 11.885088 0.021384 8.850288 0.018000000000000002 7.000056C0.014616 5.149824 0.011832 6.6708 0.011832 10.38M11.637912 5.136576C10.948608 5.1806160000000006 10.323672 5.349312 9.684000000000001 5.664048C8.499431999999999 6.246864 7.601088 7.2222480000000004 7.108848 8.46C6.485352000000001 10.027728 6.680832 11.86632 7.620552000000001 13.272816C8.732016 14.936376000000001 10.655712 15.826944000000001 12.624 15.589152C14.452008000000001 15.368304 16.034712000000003 14.205432000000002 16.790328 12.528C17.368199999999998 11.245152000000001 17.405208 9.752544 16.891152 8.46C16.399656 7.224096 15.503352 6.2506319999999995 14.316 5.663088C13.492416 5.255568 12.580872 5.076336 11.637912 5.136576M11.641200000000001 6.650064C10.21572 6.787344 8.986656 7.736424 8.489232000000001 9.084C8.094864 10.152384000000001 8.21712 11.382264000000001 8.813112 12.34164L8.868792000000001 12.431304 11.459783999999999 9.840216C13.915248 7.38468 14.04828 7.247304000000001 14.003376000000001 7.2137519999999995C13.888104000000002 7.127616 13.430304 6.910272 13.200000000000001 6.832344C12.892848 6.728447999999999 12.670368 6.681888 12.324 6.649056C12.03144 6.621336 11.938176 6.62148 11.641200000000001 6.650064M12.521351999999998 10.914648L9.934776000000001 13.50132 10.085376 13.58832C10.715952 13.952544 11.29668 14.111136000000002 12 14.111136000000002C12.71352 14.111136000000002 13.327248 13.939728 13.956 13.564848C14.3328 13.340184 14.782632 12.919032 15.054264 12.536544C15.753432000000002 11.552136 15.932424000000001 10.251144 15.524328 9.120000000000001C15.417192000000002 8.823024 15.16644 8.328 15.123144 8.328C15.114768000000002 8.328 13.943952000000001 9.492 12.521351999999998 10.914648M11.256 19.752L11.256 20.88 12 20.88L12.744 20.88 12.744 19.752L12.744 18.624 12 18.624L11.256 18.624 11.256 19.752" stroke="none" fill="currentColor" fill-rule="evenodd"></path>
</svg>