<svg xmlns="http://www.w3.org/2000/svg" viewBox="0 0 24 24" version="1.1" id="Modern-Tv-Flat--Streamline-Streamline-3.0.svg">
	<path d="M1.388496 1.90944C0.8138399999999999 2.013672 0.373992 2.371848 0.142608 2.923992C-0.0114 3.291552 -0.001872 2.784408 0.0054 10.224C0.011664 16.642752 0.014159999999999999 16.987199999999998 0.05508 17.124C0.23452800000000001 17.723712000000003 0.658536 18.134112 1.287384 18.316752L1.476 18.37152 5.61 18.37836L9.744 18.385176 9.744 19.498920000000002L9.744 20.612664 8.91 20.620344000000003L8.076 20.628 7.944 20.690712C7.6638 20.823816 7.506672000000001 21.068616000000002 7.506672000000001 21.372C7.506672000000001 21.671448 7.6668 21.926256000000002 7.939368000000001 22.060512L8.052 22.116 12 22.116L15.948 22.116 16.060632 22.060512C16.532616 21.828048 16.644912 21.210312000000002 16.281288 20.846712C16.229976 20.7954 16.1286 20.7252 16.056 20.690712L15.924 20.628 15.09 20.620344000000003L14.256 20.612664 14.256 19.498992L14.256 18.385296 18.402 18.378432L22.548000000000002 18.371544 22.736208 18.318192C23.225136000000003 18.179592 23.571048 17.897304000000002 23.797032 17.452464000000003C23.88396 17.28132 23.976 16.998312000000002 23.976 16.902072C23.976 16.872336 23.986800000000002 16.848 24 16.848C24.015936 16.848 24.024 14.587992 24.024 10.116C24.024 5.644008 24.015936 3.384 24 3.384C23.986800000000002 3.384 23.976 3.35928 23.976 3.3290400000000004C23.976 3.225384 23.903232 2.987904 23.817936 2.813184C23.611680000000003 2.390784 23.229888000000003 2.08608 22.716 1.933776L22.548000000000002 1.8840000000000001 12.06 1.8800880000000002C3.210576 1.876776 1.543344 1.8813600000000001 1.388496 1.90944M1.575504 3.442848L1.512 3.50172 1.512768 10.120848C1.513392 15.513167999999999 1.519296 16.747608 1.544712 16.781064C1.5618720000000001 16.803648000000003 1.605432 16.833336 1.641528 16.847064C1.733448 16.882008000000003 22.266552 16.882008000000003 22.358472 16.847064C22.394568 16.833336 22.438128000000003 16.803648000000003 22.455288 16.781064C22.480704 16.747608 22.486608 15.511152000000001 22.487232 10.10964L22.488 3.479304 22.41 3.4317360000000003C22.332552 3.384528 22.2576 3.3841680000000003 11.985504 3.384096L1.639008 3.384 1.575504 3.442848M0.011832 10.14C0.011832 13.8492 0.014616 15.363024 0.018000000000000002 13.504056C0.021384 11.645088 0.021384 8.610288 0.018000000000000002 6.760056C0.014616 4.9098239999999995 0.011832 6.4308 0.011832 10.14M11.256 19.5L11.256 20.616 12 20.616L12.744 20.616 12.744 19.5L12.744 18.384 12 18.384L11.256 18.384 11.256 19.5" stroke="none" fill="currentColor" fill-rule="evenodd"></path>
</svg>