<?xml version="1.0" encoding="utf-8"?>
<!-- Generator: Adobe Illustrator 26.0.3, SVG Export Plug-In . SVG Version: 6.00 Build 0)  -->
<svg version="1.1" id="Undo--Streamline-Streamline-3.0.svg"
	 xmlns="http://www.w3.org/2000/svg" xmlns:xlink="http://www.w3.org/1999/xlink" x="0px" y="0px" viewBox="0 0 24 24"
	 style="enable-background:new 0 0 24 24;" xml:space="preserve">
<style type="text/css">
	.st0{fill-rule:evenodd;clip-rule:evenodd;}
	.st1{fill:none;stroke:#000000;stroke-width:1.5;stroke-miterlimit:10;}
</style>
<path class="st0" d="M0.5,0C0.4,0,0.2,0.2,0.1,0.4L0,0.5v4v4l0.1,0.1C0.2,8.8,0.3,8.9,0.5,9h0.1h3.9h3.9l0.1-0.1
	C9,8.8,9.1,8.2,8.8,7.8C8.7,7.7,8.6,7.5,8.4,7.5c-0.1,0-1.1,0-3,0c-1.6,0-2.9,0-2.9,0s0.1-0.1,0.1-0.3c0.8-1.6,2.2-3.1,3.8-4.1
	c1.4-0.9,3-1.4,4.6-1.6c0.5,0,1.4-0.1,1.8,0c1.4,0.1,2.6,0.5,3.8,1.1c1.1,0.5,2,1.2,2.8,2.1c1.5,1.5,2.5,3.5,2.8,5.6
	c0.2,1,0.2,2.1,0,3.1c-0.1,0.8-0.3,1.7-0.6,2.5c-0.1,0.4-0.6,1.3-0.8,1.6c-1,1.7-2.5,3-4.3,3.9c-1.4,0.7-2.7,1-4.3,1.1
	c-0.6,0-0.7,0-0.8,0.2c-0.2,0.1-0.2,0.3-0.2,0.5c0,0.3,0.1,0.6,0.4,0.7c0.1,0.1,0.5,0.1,1.1,0c1.1-0.1,2-0.3,3-0.6
	c3.4-1.1,6.1-3.7,7.4-7c0.4-1,0.6-2,0.8-3.2c0-0.4,0-2,0-2.4C23.7,9,23.2,7.5,22.4,6c-1.8-3.2-4.9-5.3-8.5-5.9C13.2,0,12.9,0,12,0
	s-1.3,0-2.1,0.2C7.4,0.6,4.9,2,3.2,3.9c-0.6,0.7-1.1,1.3-1.5,2L1.5,6.1V3.3V0.5L1.4,0.4c0-0.1-0.1-0.2-0.2-0.2C1,0,0.8,0,0.5,0"/>
<line class="st1" x1="9.1" y1="15.8" x2="14.9" y2="10"/>
<line class="st1" x1="9" y1="9.9" x2="14.9" y2="15.8"/>
</svg>
