<svg xmlns="http://www.w3.org/2000/svg" viewBox="0 0 24 24" version="1.1" id="Undo--Streamline-Streamline-3.0.svg">
	<path d="M0.49968 0.03792C0.357288 0.08172 0.151392 0.267096 0.071616 0.423288L0.012 0.54 0.012 4.5L0.012 8.46 0.075864 8.580960000000001C0.161544 8.743295999999999 0.322272 8.886432 0.488856 8.94876L0.6258 9 4.5 9L8.3742 9 8.511144 8.94876C8.981112000000001 8.772936 9.148584 8.1918 8.844216000000001 7.793159999999999C8.735616 7.65096 8.564256 7.545696 8.389584 7.51392C8.29284 7.496304 7.333032 7.488 5.395584 7.488C3.8272080000000006 7.488 2.544 7.482 2.544 7.474656C2.544 7.467336 2.60196 7.345824 2.6728080000000003 7.204656000000001C3.4994400000000003 5.557464 4.84644 4.093032 6.456 3.0916080000000004C7.841544 2.229528 9.371928 1.712568 11.028 1.547208C11.48376 1.5016800000000001 12.401064 1.496064 12.852 1.536024C14.221392 1.657344 15.49764 2.0139839999999998 16.689912 2.608512C17.785895999999997 3.15504 18.661464000000002 3.797064 19.536 4.695480000000001C21.036648000000003 6.2370719999999995 22.02396 8.199912000000001 22.365192 10.32C22.525992 11.319072 22.539312000000002 12.435408 22.402272 13.428C22.29 14.241287999999999 22.065072 15.099 21.757176 15.888C21.616848 16.247568 21.167232 17.140656 20.947632 17.496C19.903224 19.18608 18.40812 20.54508 16.644000000000002 21.407832000000003C15.238920000000002 22.095 13.938672 22.420152 12.333 22.485864C11.747592000000001 22.509816 11.678304 22.527456 11.49084 22.700256000000003C11.338416 22.840752 11.270928000000001 22.989504 11.260440000000001 23.208000000000002C11.245128000000001 23.526864 11.395728 23.784312 11.682336000000001 23.929344C11.826768 24.002424 12.159648 24.017592 12.739128000000001 23.977536C13.864728 23.899704 14.764848 23.725344 15.78276 23.388C19.176816 22.26312 21.899616 19.675872 23.195688 16.344C23.584848 15.343608 23.825088 14.331552 23.956296 13.14C24.0054 12.693984000000002 23.998079999999998 11.17236 23.944704 10.728C23.73504 8.982648 23.246064 7.4743200000000005 22.426368 6.044424C20.614079999999998 2.882928 17.492808 0.724992 13.896 0.146808C13.185984000000001 0.032688 12.914496000000002 0.013631999999999998 12 0.013727999999999999C11.056799999999999 0.013848 10.704336 0.04212 9.905496 0.181776C7.362144 0.6264000000000001 4.878408 1.986624 3.1827840000000003 3.86352C2.5538160000000003 4.559712 2.0867519999999997 5.1870959999999995 1.668 5.898216L1.524 6.1427760000000005 1.512 3.364872L1.5 0.586944 1.420992 0.42648C1.3738320000000002 0.330696 1.302048 0.23184000000000002 1.242888 0.1812C1.047984 0.014352 0.7579199999999999 -0.041568 0.49968 0.03792" stroke="none" fill="currentColor" fill-rule="evenodd"></path>
</svg>