<svg viewBox="-0.5 -0.5 16 16" fill="none" xmlns="http://www.w3.org/2000/svg" id="Undo-Right-Square--Streamline-Solar-Broken" height="16" width="16"><desc>Undo Right Square Streamline Icon: https://streamlinehq.com</desc><path d="M10.9375 5.93796875H6.225968750000001c-0.8549125000000001 0 -1.28236875 0 -1.59215625 0.20029375 -0.148525 0.09603125000000001 -0.2749875 0.2224875 -0.3710125 0.3709875C4.0625 6.8190625 4.0625 7.2465 4.0625 8.101437500000001c0 0.8548749999999999 0 1.282375 0.20029375 1.592125 0.09603125000000001 0.1485625 0.2224875 0.275 0.37101875 0.3710625 0.3097875 0.20025 0.73724375 0.20025 1.59215 0.20025H9.0625m1.875 -4.32690625 -1.40625 -1.2980749999999999m1.40625 1.2980749999999999 -1.40625 1.29809375" stroke="currentColor" stroke-linecap="round" stroke-linejoin="round" stroke-width="1"></path><path d="M13.75 7.5c0 2.94625 0 4.4194375 -0.9153125 5.3346875C11.9194375 13.75 10.44625 13.75 7.5 13.75c-2.94628125 0 -4.41941875 0 -5.33470625 -0.9153125C1.25 11.9194375 1.25 10.44625 1.25 7.5c0 -2.94628125 0 -4.41941875 0.91529375 -5.33470625C3.0805812500000003 1.25 4.55371875 1.25 7.5 1.25c2.94625 0 4.4194375 0 5.3346875 0.91529375 0.608625 0.6085875000000001 0.8125625000000001 1.4638 0.880875 2.83470625" stroke="currentColor" stroke-linecap="round" stroke-width="1"></path></svg>